<?xml version="1.0" encoding="utf-8"?>
<!-- Generator: Adobe Illustrator 21.1.0, SVG Export Plug-In . SVG Version: 6.00 Build 0)  -->
<svg version="1.1" id="Layer_1" xmlns="http://www.w3.org/2000/svg" xmlns:xlink="http://www.w3.org/1999/xlink" x="0px" y="0px"
	 viewBox="0 0 1366 24" style="enable-background:new 0 0 1366 24;" xml:space="preserve">
<style type="text/css">
	.st0{fill:url(#SVGID_1_);}
	.st1{fill:url(#SVGID_2_);}
	.st2{fill:url(#SVGID_3_);}
	.st3{fill:url(#SVGID_4_);}
	.st4{fill:url(#SVGID_5_);}
	.st5{fill:url(#SVGID_6_);}
	.st6{fill:url(#SVGID_7_);}
	.st7{fill:url(#SVGID_8_);}
	.st8{fill:url(#SVGID_9_);}
	.st9{fill:url(#SVGID_10_);}
	.st10{fill:url(#SVGID_11_);}
	.st11{fill:url(#SVGID_12_);}
	.st12{fill:url(#SVGID_13_);}
	.st13{fill:url(#SVGID_14_);}
	.st14{fill:url(#SVGID_15_);}
	.st15{fill:url(#SVGID_16_);}
	.st16{fill:url(#SVGID_17_);}
	.st17{fill:url(#SVGID_18_);}
	.st18{fill:url(#SVGID_19_);}
	.st19{fill:url(#SVGID_20_);}
	.st20{fill:url(#SVGID_21_);}
	.st21{fill:url(#SVGID_22_);}
	.st22{fill:url(#SVGID_23_);}
	.st23{fill:url(#SVGID_24_);}
	.st24{fill:url(#SVGID_25_);}
	.st25{fill:url(#SVGID_26_);}
	.st26{fill:url(#SVGID_27_);}
	.st27{fill:url(#SVGID_28_);}
	.st28{fill:url(#SVGID_29_);}
	.st29{fill:url(#SVGID_30_);}
	.st30{fill:url(#SVGID_31_);}
	.st31{fill:url(#SVGID_32_);}
	.st32{fill:url(#SVGID_33_);}
	.st33{fill:url(#SVGID_34_);}
	.st34{fill:url(#SVGID_35_);}
</style>
<g>
	<g>
		<linearGradient id="SVGID_1_" gradientUnits="userSpaceOnUse" x1="-3" y1="12" x2="1369" y2="12">
			<stop  offset="0" style="stop-color:#005B97"/>
			<stop  offset="0.15" style="stop-color:#0075BE"/>
			<stop  offset="0.25" style="stop-color:#1E9CD7"/>
			<stop  offset="0.2639" style="stop-color:#26A0CA"/>
			<stop  offset="0.3202" style="stop-color:#44AF9A"/>
			<stop  offset="0.3738" style="stop-color:#5BBA74"/>
			<stop  offset="0.4231" style="stop-color:#6CC259"/>
			<stop  offset="0.4667" style="stop-color:#76C749"/>
			<stop  offset="0.5" style="stop-color:#7AC943"/>
			<stop  offset="0.5333" style="stop-color:#76C749"/>
			<stop  offset="0.5769" style="stop-color:#6CC259"/>
			<stop  offset="0.6262" style="stop-color:#5BBA74"/>
			<stop  offset="0.6798" style="stop-color:#44AF9A"/>
			<stop  offset="0.7361" style="stop-color:#26A0CA"/>
			<stop  offset="0.75" style="stop-color:#1E9CD7"/>
			<stop  offset="0.85" style="stop-color:#0075BE"/>
			<stop  offset="1" style="stop-color:#005B97"/>
		</linearGradient>
		<path class="st0" d="M0,12l20-0.2c0.1,0,0.2,0.1,0.2,0.2c0,0.1-0.1,0.2-0.2,0.2c0,0,0,0,0,0L0,12z"/>
		<linearGradient id="SVGID_2_" gradientUnits="userSpaceOnUse" x1="-3" y1="12" x2="1369" y2="12">
			<stop  offset="0" style="stop-color:#005B97"/>
			<stop  offset="0.15" style="stop-color:#0075BE"/>
			<stop  offset="0.25" style="stop-color:#1E9CD7"/>
			<stop  offset="0.2639" style="stop-color:#26A0CA"/>
			<stop  offset="0.3202" style="stop-color:#44AF9A"/>
			<stop  offset="0.3738" style="stop-color:#5BBA74"/>
			<stop  offset="0.4231" style="stop-color:#6CC259"/>
			<stop  offset="0.4667" style="stop-color:#76C749"/>
			<stop  offset="0.5" style="stop-color:#7AC943"/>
			<stop  offset="0.5333" style="stop-color:#76C749"/>
			<stop  offset="0.5769" style="stop-color:#6CC259"/>
			<stop  offset="0.6262" style="stop-color:#5BBA74"/>
			<stop  offset="0.6798" style="stop-color:#44AF9A"/>
			<stop  offset="0.7361" style="stop-color:#26A0CA"/>
			<stop  offset="0.75" style="stop-color:#1E9CD7"/>
			<stop  offset="0.85" style="stop-color:#0075BE"/>
			<stop  offset="1" style="stop-color:#005B97"/>
		</linearGradient>
		<path class="st1" d="M40,11.6l20-0.2c0.3,0,0.6,0.3,0.6,0.6s-0.3,0.6-0.6,0.6c0,0,0,0,0,0l-20-0.2c-0.2,0-0.4-0.2-0.4-0.4
			C39.6,11.8,39.8,11.6,40,11.6z"/>
		<linearGradient id="SVGID_3_" gradientUnits="userSpaceOnUse" x1="-3" y1="12" x2="1369" y2="12">
			<stop  offset="0" style="stop-color:#005B97"/>
			<stop  offset="0.15" style="stop-color:#0075BE"/>
			<stop  offset="0.25" style="stop-color:#1E9CD7"/>
			<stop  offset="0.2639" style="stop-color:#26A0CA"/>
			<stop  offset="0.3202" style="stop-color:#44AF9A"/>
			<stop  offset="0.3738" style="stop-color:#5BBA74"/>
			<stop  offset="0.4231" style="stop-color:#6CC259"/>
			<stop  offset="0.4667" style="stop-color:#76C749"/>
			<stop  offset="0.5" style="stop-color:#7AC943"/>
			<stop  offset="0.5333" style="stop-color:#76C749"/>
			<stop  offset="0.5769" style="stop-color:#6CC259"/>
			<stop  offset="0.6262" style="stop-color:#5BBA74"/>
			<stop  offset="0.6798" style="stop-color:#44AF9A"/>
			<stop  offset="0.7361" style="stop-color:#26A0CA"/>
			<stop  offset="0.75" style="stop-color:#1E9CD7"/>
			<stop  offset="0.85" style="stop-color:#0075BE"/>
			<stop  offset="1" style="stop-color:#005B97"/>
		</linearGradient>
		<path class="st2" d="M80,11.3l20-0.2c0.5,0,0.9,0.4,0.9,0.9c0,0.5-0.4,0.9-0.9,0.9c0,0,0,0,0,0l-20-0.2c-0.4,0-0.7-0.3-0.7-0.8
			C79.3,11.6,79.6,11.3,80,11.3z"/>
		<linearGradient id="SVGID_4_" gradientUnits="userSpaceOnUse" x1="-3" y1="12" x2="1369" y2="12">
			<stop  offset="0" style="stop-color:#005B97"/>
			<stop  offset="0.15" style="stop-color:#0075BE"/>
			<stop  offset="0.25" style="stop-color:#1E9CD7"/>
			<stop  offset="0.2639" style="stop-color:#26A0CA"/>
			<stop  offset="0.3202" style="stop-color:#44AF9A"/>
			<stop  offset="0.3738" style="stop-color:#5BBA74"/>
			<stop  offset="0.4231" style="stop-color:#6CC259"/>
			<stop  offset="0.4667" style="stop-color:#76C749"/>
			<stop  offset="0.5" style="stop-color:#7AC943"/>
			<stop  offset="0.5333" style="stop-color:#76C749"/>
			<stop  offset="0.5769" style="stop-color:#6CC259"/>
			<stop  offset="0.6262" style="stop-color:#5BBA74"/>
			<stop  offset="0.6798" style="stop-color:#44AF9A"/>
			<stop  offset="0.7361" style="stop-color:#26A0CA"/>
			<stop  offset="0.75" style="stop-color:#1E9CD7"/>
			<stop  offset="0.85" style="stop-color:#0075BE"/>
			<stop  offset="1" style="stop-color:#005B97"/>
		</linearGradient>
		<path class="st3" d="M120,10.9l20-0.2c0.7,0,1.2,0.5,1.2,1.2c0,0.7-0.5,1.2-1.2,1.2c0,0,0,0,0,0l-20-0.2c-0.6,0-1.1-0.5-1.1-1.1
			C118.9,11.4,119.4,10.9,120,10.9z"/>
		<linearGradient id="SVGID_5_" gradientUnits="userSpaceOnUse" x1="-3" y1="12" x2="1369" y2="12">
			<stop  offset="0" style="stop-color:#005B97"/>
			<stop  offset="0.15" style="stop-color:#0075BE"/>
			<stop  offset="0.25" style="stop-color:#1E9CD7"/>
			<stop  offset="0.2639" style="stop-color:#26A0CA"/>
			<stop  offset="0.3202" style="stop-color:#44AF9A"/>
			<stop  offset="0.3738" style="stop-color:#5BBA74"/>
			<stop  offset="0.4231" style="stop-color:#6CC259"/>
			<stop  offset="0.4667" style="stop-color:#76C749"/>
			<stop  offset="0.5" style="stop-color:#7AC943"/>
			<stop  offset="0.5333" style="stop-color:#76C749"/>
			<stop  offset="0.5769" style="stop-color:#6CC259"/>
			<stop  offset="0.6262" style="stop-color:#5BBA74"/>
			<stop  offset="0.6798" style="stop-color:#44AF9A"/>
			<stop  offset="0.7361" style="stop-color:#26A0CA"/>
			<stop  offset="0.75" style="stop-color:#1E9CD7"/>
			<stop  offset="0.85" style="stop-color:#0075BE"/>
			<stop  offset="1" style="stop-color:#005B97"/>
		</linearGradient>
		<path class="st4" d="M160,10.6l20-0.1c0.8,0,1.5,0.7,1.5,1.5c0,0.8-0.7,1.5-1.5,1.5c0,0,0,0,0,0l-20-0.1c-0.8,0-1.4-0.6-1.4-1.4
			C158.6,11.2,159.2,10.6,160,10.6z"/>
		<linearGradient id="SVGID_6_" gradientUnits="userSpaceOnUse" x1="-3" y1="12" x2="1369" y2="12">
			<stop  offset="0" style="stop-color:#005B97"/>
			<stop  offset="0.15" style="stop-color:#0075BE"/>
			<stop  offset="0.25" style="stop-color:#1E9CD7"/>
			<stop  offset="0.2639" style="stop-color:#26A0CA"/>
			<stop  offset="0.3202" style="stop-color:#44AF9A"/>
			<stop  offset="0.3738" style="stop-color:#5BBA74"/>
			<stop  offset="0.4231" style="stop-color:#6CC259"/>
			<stop  offset="0.4667" style="stop-color:#76C749"/>
			<stop  offset="0.5" style="stop-color:#7AC943"/>
			<stop  offset="0.5333" style="stop-color:#76C749"/>
			<stop  offset="0.5769" style="stop-color:#6CC259"/>
			<stop  offset="0.6262" style="stop-color:#5BBA74"/>
			<stop  offset="0.6798" style="stop-color:#44AF9A"/>
			<stop  offset="0.7361" style="stop-color:#26A0CA"/>
			<stop  offset="0.75" style="stop-color:#1E9CD7"/>
			<stop  offset="0.85" style="stop-color:#0075BE"/>
			<stop  offset="1" style="stop-color:#005B97"/>
		</linearGradient>
		<path class="st5" d="M200,10.4l20-0.1c1,0,1.8,0.8,1.8,1.7c0,1-0.8,1.8-1.7,1.8c0,0,0,0,0,0l-20-0.1c-0.9,0-1.6-0.7-1.6-1.6
			C198.4,11.1,199.1,10.4,200,10.4z"/>
		<linearGradient id="SVGID_7_" gradientUnits="userSpaceOnUse" x1="-3" y1="12" x2="1369" y2="12">
			<stop  offset="0" style="stop-color:#005B97"/>
			<stop  offset="0.15" style="stop-color:#0075BE"/>
			<stop  offset="0.25" style="stop-color:#1E9CD7"/>
			<stop  offset="0.2639" style="stop-color:#26A0CA"/>
			<stop  offset="0.3202" style="stop-color:#44AF9A"/>
			<stop  offset="0.3738" style="stop-color:#5BBA74"/>
			<stop  offset="0.4231" style="stop-color:#6CC259"/>
			<stop  offset="0.4667" style="stop-color:#76C749"/>
			<stop  offset="0.5" style="stop-color:#7AC943"/>
			<stop  offset="0.5333" style="stop-color:#76C749"/>
			<stop  offset="0.5769" style="stop-color:#6CC259"/>
			<stop  offset="0.6262" style="stop-color:#5BBA74"/>
			<stop  offset="0.6798" style="stop-color:#44AF9A"/>
			<stop  offset="0.7361" style="stop-color:#26A0CA"/>
			<stop  offset="0.75" style="stop-color:#1E9CD7"/>
			<stop  offset="0.85" style="stop-color:#0075BE"/>
			<stop  offset="1" style="stop-color:#005B97"/>
		</linearGradient>
		<path class="st6" d="M240,10.1l20-0.1c1.1,0,2,0.9,2,2s-0.9,2-2,2c0,0,0,0,0,0l-20-0.1c-1,0-1.9-0.8-1.9-1.9
			C238.2,11,239,10.1,240,10.1z"/>
		<linearGradient id="SVGID_8_" gradientUnits="userSpaceOnUse" x1="-3" y1="12" x2="1369" y2="12">
			<stop  offset="0" style="stop-color:#005B97"/>
			<stop  offset="0.15" style="stop-color:#0075BE"/>
			<stop  offset="0.25" style="stop-color:#1E9CD7"/>
			<stop  offset="0.2639" style="stop-color:#26A0CA"/>
			<stop  offset="0.3202" style="stop-color:#44AF9A"/>
			<stop  offset="0.3738" style="stop-color:#5BBA74"/>
			<stop  offset="0.4231" style="stop-color:#6CC259"/>
			<stop  offset="0.4667" style="stop-color:#76C749"/>
			<stop  offset="0.5" style="stop-color:#7AC943"/>
			<stop  offset="0.5333" style="stop-color:#76C749"/>
			<stop  offset="0.5769" style="stop-color:#6CC259"/>
			<stop  offset="0.6262" style="stop-color:#5BBA74"/>
			<stop  offset="0.6798" style="stop-color:#44AF9A"/>
			<stop  offset="0.7361" style="stop-color:#26A0CA"/>
			<stop  offset="0.75" style="stop-color:#1E9CD7"/>
			<stop  offset="0.85" style="stop-color:#0075BE"/>
			<stop  offset="1" style="stop-color:#005B97"/>
		</linearGradient>
		<path class="st7" d="M280,9.9l20-0.1c1.2,0,2.2,1,2.2,2.2s-1,2.2-2.2,2.2h0l-20-0.1c-1.1,0-2.1-0.9-2.1-2.1
			C277.9,10.8,278.9,9.9,280,9.9z"/>
		<linearGradient id="SVGID_9_" gradientUnits="userSpaceOnUse" x1="-3" y1="12" x2="1369" y2="12">
			<stop  offset="0" style="stop-color:#005B97"/>
			<stop  offset="0.15" style="stop-color:#0075BE"/>
			<stop  offset="0.25" style="stop-color:#1E9CD7"/>
			<stop  offset="0.2639" style="stop-color:#26A0CA"/>
			<stop  offset="0.3202" style="stop-color:#44AF9A"/>
			<stop  offset="0.3738" style="stop-color:#5BBA74"/>
			<stop  offset="0.4231" style="stop-color:#6CC259"/>
			<stop  offset="0.4667" style="stop-color:#76C749"/>
			<stop  offset="0.5" style="stop-color:#7AC943"/>
			<stop  offset="0.5333" style="stop-color:#76C749"/>
			<stop  offset="0.5769" style="stop-color:#6CC259"/>
			<stop  offset="0.6262" style="stop-color:#5BBA74"/>
			<stop  offset="0.6798" style="stop-color:#44AF9A"/>
			<stop  offset="0.7361" style="stop-color:#26A0CA"/>
			<stop  offset="0.75" style="stop-color:#1E9CD7"/>
			<stop  offset="0.85" style="stop-color:#0075BE"/>
			<stop  offset="1" style="stop-color:#005B97"/>
		</linearGradient>
		<path class="st8" d="M320,9.8l20-0.1c1.3,0,2.3,1,2.3,2.3c0,1.3-1,2.3-2.3,2.3h0l-20-0.1c-1.2,0-2.2-1-2.2-2.3
			C317.8,10.8,318.8,9.8,320,9.8z"/>
		<linearGradient id="SVGID_10_" gradientUnits="userSpaceOnUse" x1="-3" y1="12" x2="1369" y2="12">
			<stop  offset="0" style="stop-color:#005B97"/>
			<stop  offset="0.15" style="stop-color:#0075BE"/>
			<stop  offset="0.25" style="stop-color:#1E9CD7"/>
			<stop  offset="0.2639" style="stop-color:#26A0CA"/>
			<stop  offset="0.3202" style="stop-color:#44AF9A"/>
			<stop  offset="0.3738" style="stop-color:#5BBA74"/>
			<stop  offset="0.4231" style="stop-color:#6CC259"/>
			<stop  offset="0.4667" style="stop-color:#76C749"/>
			<stop  offset="0.5" style="stop-color:#7AC943"/>
			<stop  offset="0.5333" style="stop-color:#76C749"/>
			<stop  offset="0.5769" style="stop-color:#6CC259"/>
			<stop  offset="0.6262" style="stop-color:#5BBA74"/>
			<stop  offset="0.6798" style="stop-color:#44AF9A"/>
			<stop  offset="0.7361" style="stop-color:#26A0CA"/>
			<stop  offset="0.75" style="stop-color:#1E9CD7"/>
			<stop  offset="0.85" style="stop-color:#0075BE"/>
			<stop  offset="1" style="stop-color:#005B97"/>
		</linearGradient>
		<path class="st9" d="M360,9.6l20-0.1c1.4,0,2.5,1.1,2.5,2.5c0,1.4-1.1,2.5-2.5,2.5h0l-20-0.1c-1.3,0-2.4-1.1-2.4-2.4
			C357.6,10.7,358.7,9.6,360,9.6z"/>
		<linearGradient id="SVGID_11_" gradientUnits="userSpaceOnUse" x1="-3" y1="12" x2="1369" y2="12">
			<stop  offset="0" style="stop-color:#005B97"/>
			<stop  offset="0.15" style="stop-color:#0075BE"/>
			<stop  offset="0.25" style="stop-color:#1E9CD7"/>
			<stop  offset="0.2639" style="stop-color:#26A0CA"/>
			<stop  offset="0.3202" style="stop-color:#44AF9A"/>
			<stop  offset="0.3738" style="stop-color:#5BBA74"/>
			<stop  offset="0.4231" style="stop-color:#6CC259"/>
			<stop  offset="0.4667" style="stop-color:#76C749"/>
			<stop  offset="0.5" style="stop-color:#7AC943"/>
			<stop  offset="0.5333" style="stop-color:#76C749"/>
			<stop  offset="0.5769" style="stop-color:#6CC259"/>
			<stop  offset="0.6262" style="stop-color:#5BBA74"/>
			<stop  offset="0.6798" style="stop-color:#44AF9A"/>
			<stop  offset="0.7361" style="stop-color:#26A0CA"/>
			<stop  offset="0.75" style="stop-color:#1E9CD7"/>
			<stop  offset="0.85" style="stop-color:#0075BE"/>
			<stop  offset="1" style="stop-color:#005B97"/>
		</linearGradient>
		<path class="st10" d="M400,9.4l20,0c1.4,0,2.6,1.2,2.6,2.6c0,1.4-1.2,2.6-2.6,2.6h0l-20,0c-1.4,0-2.6-1.2-2.5-2.6
			C397.5,10.6,398.6,9.4,400,9.4z"/>
		<linearGradient id="SVGID_12_" gradientUnits="userSpaceOnUse" x1="-3" y1="12" x2="1369" y2="12">
			<stop  offset="0" style="stop-color:#005B97"/>
			<stop  offset="0.15" style="stop-color:#0075BE"/>
			<stop  offset="0.25" style="stop-color:#1E9CD7"/>
			<stop  offset="0.2639" style="stop-color:#26A0CA"/>
			<stop  offset="0.3202" style="stop-color:#44AF9A"/>
			<stop  offset="0.3738" style="stop-color:#5BBA74"/>
			<stop  offset="0.4231" style="stop-color:#6CC259"/>
			<stop  offset="0.4667" style="stop-color:#76C749"/>
			<stop  offset="0.5" style="stop-color:#7AC943"/>
			<stop  offset="0.5333" style="stop-color:#76C749"/>
			<stop  offset="0.5769" style="stop-color:#6CC259"/>
			<stop  offset="0.6262" style="stop-color:#5BBA74"/>
			<stop  offset="0.6798" style="stop-color:#44AF9A"/>
			<stop  offset="0.7361" style="stop-color:#26A0CA"/>
			<stop  offset="0.75" style="stop-color:#1E9CD7"/>
			<stop  offset="0.85" style="stop-color:#0075BE"/>
			<stop  offset="1" style="stop-color:#005B97"/>
		</linearGradient>
		<path class="st11" d="M440,9.3l20,0c1.5,0,2.7,1.2,2.7,2.7s-1.2,2.7-2.7,2.7h0l-20,0c-1.5,0-2.7-1.2-2.6-2.7
			C437.4,10.5,438.5,9.3,440,9.3z"/>
		<linearGradient id="SVGID_13_" gradientUnits="userSpaceOnUse" x1="-3" y1="12" x2="1369" y2="12">
			<stop  offset="0" style="stop-color:#005B97"/>
			<stop  offset="0.15" style="stop-color:#0075BE"/>
			<stop  offset="0.25" style="stop-color:#1E9CD7"/>
			<stop  offset="0.2639" style="stop-color:#26A0CA"/>
			<stop  offset="0.3202" style="stop-color:#44AF9A"/>
			<stop  offset="0.3738" style="stop-color:#5BBA74"/>
			<stop  offset="0.4231" style="stop-color:#6CC259"/>
			<stop  offset="0.4667" style="stop-color:#76C749"/>
			<stop  offset="0.5" style="stop-color:#7AC943"/>
			<stop  offset="0.5333" style="stop-color:#76C749"/>
			<stop  offset="0.5769" style="stop-color:#6CC259"/>
			<stop  offset="0.6262" style="stop-color:#5BBA74"/>
			<stop  offset="0.6798" style="stop-color:#44AF9A"/>
			<stop  offset="0.7361" style="stop-color:#26A0CA"/>
			<stop  offset="0.75" style="stop-color:#1E9CD7"/>
			<stop  offset="0.85" style="stop-color:#0075BE"/>
			<stop  offset="1" style="stop-color:#005B97"/>
		</linearGradient>
		<path class="st12" d="M480,9.2l20,0c1.5,0,2.8,1.2,2.8,2.8c0,1.5-1.2,2.8-2.8,2.8h0l-20,0c-1.5,0-2.7-1.2-2.7-2.8
			C477.3,10.5,478.5,9.2,480,9.2z"/>
		<linearGradient id="SVGID_14_" gradientUnits="userSpaceOnUse" x1="-3" y1="12" x2="1369" y2="12">
			<stop  offset="0" style="stop-color:#005B97"/>
			<stop  offset="0.15" style="stop-color:#0075BE"/>
			<stop  offset="0.25" style="stop-color:#1E9CD7"/>
			<stop  offset="0.2639" style="stop-color:#26A0CA"/>
			<stop  offset="0.3202" style="stop-color:#44AF9A"/>
			<stop  offset="0.3738" style="stop-color:#5BBA74"/>
			<stop  offset="0.4231" style="stop-color:#6CC259"/>
			<stop  offset="0.4667" style="stop-color:#76C749"/>
			<stop  offset="0.5" style="stop-color:#7AC943"/>
			<stop  offset="0.5333" style="stop-color:#76C749"/>
			<stop  offset="0.5769" style="stop-color:#6CC259"/>
			<stop  offset="0.6262" style="stop-color:#5BBA74"/>
			<stop  offset="0.6798" style="stop-color:#44AF9A"/>
			<stop  offset="0.7361" style="stop-color:#26A0CA"/>
			<stop  offset="0.75" style="stop-color:#1E9CD7"/>
			<stop  offset="0.85" style="stop-color:#0075BE"/>
			<stop  offset="1" style="stop-color:#005B97"/>
		</linearGradient>
		<path class="st13" d="M520,9.1l20,0c1.6,0,2.9,1.3,2.9,2.9c0,1.6-1.3,2.9-2.9,2.9h0l-20,0c-1.6,0-2.8-1.3-2.8-2.9
			S518.4,9.1,520,9.1z"/>
		<linearGradient id="SVGID_15_" gradientUnits="userSpaceOnUse" x1="-3" y1="12" x2="1369" y2="12">
			<stop  offset="0" style="stop-color:#005B97"/>
			<stop  offset="0.15" style="stop-color:#0075BE"/>
			<stop  offset="0.25" style="stop-color:#1E9CD7"/>
			<stop  offset="0.2639" style="stop-color:#26A0CA"/>
			<stop  offset="0.3202" style="stop-color:#44AF9A"/>
			<stop  offset="0.3738" style="stop-color:#5BBA74"/>
			<stop  offset="0.4231" style="stop-color:#6CC259"/>
			<stop  offset="0.4667" style="stop-color:#76C749"/>
			<stop  offset="0.5" style="stop-color:#7AC943"/>
			<stop  offset="0.5333" style="stop-color:#76C749"/>
			<stop  offset="0.5769" style="stop-color:#6CC259"/>
			<stop  offset="0.6262" style="stop-color:#5BBA74"/>
			<stop  offset="0.6798" style="stop-color:#44AF9A"/>
			<stop  offset="0.7361" style="stop-color:#26A0CA"/>
			<stop  offset="0.75" style="stop-color:#1E9CD7"/>
			<stop  offset="0.85" style="stop-color:#0075BE"/>
			<stop  offset="1" style="stop-color:#005B97"/>
		</linearGradient>
		<path class="st14" d="M560,9.1l20,0c1.6,0,2.9,1.3,2.9,2.9s-1.3,2.9-2.9,2.9h0l-20,0c-1.6,0-2.9-1.3-2.9-2.9
			C557.1,10.4,558.4,9.1,560,9.1z"/>
		<linearGradient id="SVGID_16_" gradientUnits="userSpaceOnUse" x1="-3" y1="12" x2="1369" y2="12">
			<stop  offset="0" style="stop-color:#005B97"/>
			<stop  offset="0.15" style="stop-color:#0075BE"/>
			<stop  offset="0.25" style="stop-color:#1E9CD7"/>
			<stop  offset="0.2639" style="stop-color:#26A0CA"/>
			<stop  offset="0.3202" style="stop-color:#44AF9A"/>
			<stop  offset="0.3738" style="stop-color:#5BBA74"/>
			<stop  offset="0.4231" style="stop-color:#6CC259"/>
			<stop  offset="0.4667" style="stop-color:#76C749"/>
			<stop  offset="0.5" style="stop-color:#7AC943"/>
			<stop  offset="0.5333" style="stop-color:#76C749"/>
			<stop  offset="0.5769" style="stop-color:#6CC259"/>
			<stop  offset="0.6262" style="stop-color:#5BBA74"/>
			<stop  offset="0.6798" style="stop-color:#44AF9A"/>
			<stop  offset="0.7361" style="stop-color:#26A0CA"/>
			<stop  offset="0.75" style="stop-color:#1E9CD7"/>
			<stop  offset="0.85" style="stop-color:#0075BE"/>
			<stop  offset="1" style="stop-color:#005B97"/>
		</linearGradient>
		<path class="st15" d="M600,9.1l20,0c1.6,0,2.9,1.3,2.9,2.9c0,1.6-1.3,2.9-2.9,2.9h0l-20,0c-1.6,0-2.9-1.3-2.9-2.9
			C597.1,10.4,598.4,9.1,600,9.1z"/>
		<linearGradient id="SVGID_17_" gradientUnits="userSpaceOnUse" x1="-3" y1="12" x2="1369" y2="12">
			<stop  offset="0" style="stop-color:#005B97"/>
			<stop  offset="0.15" style="stop-color:#0075BE"/>
			<stop  offset="0.25" style="stop-color:#1E9CD7"/>
			<stop  offset="0.2639" style="stop-color:#26A0CA"/>
			<stop  offset="0.3202" style="stop-color:#44AF9A"/>
			<stop  offset="0.3738" style="stop-color:#5BBA74"/>
			<stop  offset="0.4231" style="stop-color:#6CC259"/>
			<stop  offset="0.4667" style="stop-color:#76C749"/>
			<stop  offset="0.5" style="stop-color:#7AC943"/>
			<stop  offset="0.5333" style="stop-color:#76C749"/>
			<stop  offset="0.5769" style="stop-color:#6CC259"/>
			<stop  offset="0.6262" style="stop-color:#5BBA74"/>
			<stop  offset="0.6798" style="stop-color:#44AF9A"/>
			<stop  offset="0.7361" style="stop-color:#26A0CA"/>
			<stop  offset="0.75" style="stop-color:#1E9CD7"/>
			<stop  offset="0.85" style="stop-color:#0075BE"/>
			<stop  offset="1" style="stop-color:#005B97"/>
		</linearGradient>
		<path class="st16" d="M640,9l20,0c1.6,0,3,1.3,3,3s-1.3,3-3,3h0l-20,0c-1.6,0-3-1.3-3-3C637,10.4,638.4,9,640,9z"/>
		<linearGradient id="SVGID_18_" gradientUnits="userSpaceOnUse" x1="-3" y1="12" x2="1369" y2="12">
			<stop  offset="0" style="stop-color:#005B97"/>
			<stop  offset="0.15" style="stop-color:#0075BE"/>
			<stop  offset="0.25" style="stop-color:#1E9CD7"/>
			<stop  offset="0.2639" style="stop-color:#26A0CA"/>
			<stop  offset="0.3202" style="stop-color:#44AF9A"/>
			<stop  offset="0.3738" style="stop-color:#5BBA74"/>
			<stop  offset="0.4231" style="stop-color:#6CC259"/>
			<stop  offset="0.4667" style="stop-color:#76C749"/>
			<stop  offset="0.5" style="stop-color:#7AC943"/>
			<stop  offset="0.5333" style="stop-color:#76C749"/>
			<stop  offset="0.5769" style="stop-color:#6CC259"/>
			<stop  offset="0.6262" style="stop-color:#5BBA74"/>
			<stop  offset="0.6798" style="stop-color:#44AF9A"/>
			<stop  offset="0.7361" style="stop-color:#26A0CA"/>
			<stop  offset="0.75" style="stop-color:#1E9CD7"/>
			<stop  offset="0.85" style="stop-color:#0075BE"/>
			<stop  offset="1" style="stop-color:#005B97"/>
		</linearGradient>
		<path class="st17" d="M680,9l20,0c1.7,0,3,1.3,3,3c0,1.7-1.3,3-3,3l-20,0c-1.7,0-3-1.3-3-3S678.3,9,680,9L680,9z"/>
		<linearGradient id="SVGID_19_" gradientUnits="userSpaceOnUse" x1="-3" y1="12" x2="1369" y2="12">
			<stop  offset="0" style="stop-color:#005B97"/>
			<stop  offset="0.15" style="stop-color:#0075BE"/>
			<stop  offset="0.25" style="stop-color:#1E9CD7"/>
			<stop  offset="0.2639" style="stop-color:#26A0CA"/>
			<stop  offset="0.3202" style="stop-color:#44AF9A"/>
			<stop  offset="0.3738" style="stop-color:#5BBA74"/>
			<stop  offset="0.4231" style="stop-color:#6CC259"/>
			<stop  offset="0.4667" style="stop-color:#76C749"/>
			<stop  offset="0.5" style="stop-color:#7AC943"/>
			<stop  offset="0.5333" style="stop-color:#76C749"/>
			<stop  offset="0.5769" style="stop-color:#6CC259"/>
			<stop  offset="0.6262" style="stop-color:#5BBA74"/>
			<stop  offset="0.6798" style="stop-color:#44AF9A"/>
			<stop  offset="0.7361" style="stop-color:#26A0CA"/>
			<stop  offset="0.75" style="stop-color:#1E9CD7"/>
			<stop  offset="0.85" style="stop-color:#0075BE"/>
			<stop  offset="1" style="stop-color:#005B97"/>
		</linearGradient>
		<path class="st18" d="M720,9l20,0c1.6,0,3,1.3,3,3s-1.3,3-3,3l-20,0c-1.6,0-3-1.3-3-3S718.4,9,720,9L720,9z"/>
		<linearGradient id="SVGID_20_" gradientUnits="userSpaceOnUse" x1="-3" y1="12" x2="1369" y2="12">
			<stop  offset="0" style="stop-color:#005B97"/>
			<stop  offset="0.15" style="stop-color:#0075BE"/>
			<stop  offset="0.25" style="stop-color:#1E9CD7"/>
			<stop  offset="0.2639" style="stop-color:#26A0CA"/>
			<stop  offset="0.3202" style="stop-color:#44AF9A"/>
			<stop  offset="0.3738" style="stop-color:#5BBA74"/>
			<stop  offset="0.4231" style="stop-color:#6CC259"/>
			<stop  offset="0.4667" style="stop-color:#76C749"/>
			<stop  offset="0.5" style="stop-color:#7AC943"/>
			<stop  offset="0.5333" style="stop-color:#76C749"/>
			<stop  offset="0.5769" style="stop-color:#6CC259"/>
			<stop  offset="0.6262" style="stop-color:#5BBA74"/>
			<stop  offset="0.6798" style="stop-color:#44AF9A"/>
			<stop  offset="0.7361" style="stop-color:#26A0CA"/>
			<stop  offset="0.75" style="stop-color:#1E9CD7"/>
			<stop  offset="0.85" style="stop-color:#0075BE"/>
			<stop  offset="1" style="stop-color:#005B97"/>
		</linearGradient>
		<path class="st19" d="M760,9.1l20,0c1.6,0,2.9,1.3,2.9,2.9c0,1.6-1.3,2.9-2.9,2.9l-20,0c-1.6,0-2.9-1.3-2.9-2.9
			C757.1,10.4,758.4,9.1,760,9.1L760,9.1z"/>
		<linearGradient id="SVGID_21_" gradientUnits="userSpaceOnUse" x1="-3" y1="12" x2="1369" y2="12">
			<stop  offset="0" style="stop-color:#005B97"/>
			<stop  offset="0.15" style="stop-color:#0075BE"/>
			<stop  offset="0.25" style="stop-color:#1E9CD7"/>
			<stop  offset="0.2639" style="stop-color:#26A0CA"/>
			<stop  offset="0.3202" style="stop-color:#44AF9A"/>
			<stop  offset="0.3738" style="stop-color:#5BBA74"/>
			<stop  offset="0.4231" style="stop-color:#6CC259"/>
			<stop  offset="0.4667" style="stop-color:#76C749"/>
			<stop  offset="0.5" style="stop-color:#7AC943"/>
			<stop  offset="0.5333" style="stop-color:#76C749"/>
			<stop  offset="0.5769" style="stop-color:#6CC259"/>
			<stop  offset="0.6262" style="stop-color:#5BBA74"/>
			<stop  offset="0.6798" style="stop-color:#44AF9A"/>
			<stop  offset="0.7361" style="stop-color:#26A0CA"/>
			<stop  offset="0.75" style="stop-color:#1E9CD7"/>
			<stop  offset="0.85" style="stop-color:#0075BE"/>
			<stop  offset="1" style="stop-color:#005B97"/>
		</linearGradient>
		<path class="st20" d="M800,9.1l20,0c1.6,0,2.9,1.3,2.9,2.9c0,1.6-1.3,2.9-2.9,2.9l-20,0c-1.6,0-2.9-1.3-2.9-2.9
			C797.1,10.4,798.4,9.1,800,9.1L800,9.1z"/>
		<linearGradient id="SVGID_22_" gradientUnits="userSpaceOnUse" x1="-3" y1="12" x2="1369" y2="12">
			<stop  offset="0" style="stop-color:#005B97"/>
			<stop  offset="0.15" style="stop-color:#0075BE"/>
			<stop  offset="0.25" style="stop-color:#1E9CD7"/>
			<stop  offset="0.2639" style="stop-color:#26A0CA"/>
			<stop  offset="0.3202" style="stop-color:#44AF9A"/>
			<stop  offset="0.3738" style="stop-color:#5BBA74"/>
			<stop  offset="0.4231" style="stop-color:#6CC259"/>
			<stop  offset="0.4667" style="stop-color:#76C749"/>
			<stop  offset="0.5" style="stop-color:#7AC943"/>
			<stop  offset="0.5333" style="stop-color:#76C749"/>
			<stop  offset="0.5769" style="stop-color:#6CC259"/>
			<stop  offset="0.6262" style="stop-color:#5BBA74"/>
			<stop  offset="0.6798" style="stop-color:#44AF9A"/>
			<stop  offset="0.7361" style="stop-color:#26A0CA"/>
			<stop  offset="0.75" style="stop-color:#1E9CD7"/>
			<stop  offset="0.85" style="stop-color:#0075BE"/>
			<stop  offset="1" style="stop-color:#005B97"/>
		</linearGradient>
		<path class="st21" d="M840,9.1l20,0c1.6,0,2.8,1.3,2.8,2.8c0,1.6-1.3,2.8-2.8,2.8l-20,0c-1.6,0-2.9-1.3-2.9-2.9
			C837.1,10.4,838.4,9.1,840,9.1L840,9.1z"/>
		<linearGradient id="SVGID_23_" gradientUnits="userSpaceOnUse" x1="-3" y1="12" x2="1369" y2="12">
			<stop  offset="0" style="stop-color:#005B97"/>
			<stop  offset="0.15" style="stop-color:#0075BE"/>
			<stop  offset="0.25" style="stop-color:#1E9CD7"/>
			<stop  offset="0.2639" style="stop-color:#26A0CA"/>
			<stop  offset="0.3202" style="stop-color:#44AF9A"/>
			<stop  offset="0.3738" style="stop-color:#5BBA74"/>
			<stop  offset="0.4231" style="stop-color:#6CC259"/>
			<stop  offset="0.4667" style="stop-color:#76C749"/>
			<stop  offset="0.5" style="stop-color:#7AC943"/>
			<stop  offset="0.5333" style="stop-color:#76C749"/>
			<stop  offset="0.5769" style="stop-color:#6CC259"/>
			<stop  offset="0.6262" style="stop-color:#5BBA74"/>
			<stop  offset="0.6798" style="stop-color:#44AF9A"/>
			<stop  offset="0.7361" style="stop-color:#26A0CA"/>
			<stop  offset="0.75" style="stop-color:#1E9CD7"/>
			<stop  offset="0.85" style="stop-color:#0075BE"/>
			<stop  offset="1" style="stop-color:#005B97"/>
		</linearGradient>
		<path class="st22" d="M880,9.2l20,0c1.5,0,2.7,1.2,2.7,2.7s-1.2,2.7-2.7,2.7l-20,0c-1.5,0-2.8-1.2-2.8-2.8
			C877.2,10.5,878.5,9.2,880,9.2L880,9.2z"/>
		<linearGradient id="SVGID_24_" gradientUnits="userSpaceOnUse" x1="-3" y1="12" x2="1369" y2="12">
			<stop  offset="0" style="stop-color:#005B97"/>
			<stop  offset="0.15" style="stop-color:#0075BE"/>
			<stop  offset="0.25" style="stop-color:#1E9CD7"/>
			<stop  offset="0.2639" style="stop-color:#26A0CA"/>
			<stop  offset="0.3202" style="stop-color:#44AF9A"/>
			<stop  offset="0.3738" style="stop-color:#5BBA74"/>
			<stop  offset="0.4231" style="stop-color:#6CC259"/>
			<stop  offset="0.4667" style="stop-color:#76C749"/>
			<stop  offset="0.5" style="stop-color:#7AC943"/>
			<stop  offset="0.5333" style="stop-color:#76C749"/>
			<stop  offset="0.5769" style="stop-color:#6CC259"/>
			<stop  offset="0.6262" style="stop-color:#5BBA74"/>
			<stop  offset="0.6798" style="stop-color:#44AF9A"/>
			<stop  offset="0.7361" style="stop-color:#26A0CA"/>
			<stop  offset="0.75" style="stop-color:#1E9CD7"/>
			<stop  offset="0.85" style="stop-color:#0075BE"/>
			<stop  offset="1" style="stop-color:#005B97"/>
		</linearGradient>
		<path class="st23" d="M920,9.3l20,0c1.5,0,2.6,1.2,2.6,2.6s-1.2,2.6-2.6,2.6l-20,0c-1.5,0-2.7-1.2-2.7-2.7
			C917.3,10.5,918.5,9.3,920,9.3L920,9.3z"/>
		<linearGradient id="SVGID_25_" gradientUnits="userSpaceOnUse" x1="-3" y1="12" x2="1369" y2="12">
			<stop  offset="0" style="stop-color:#005B97"/>
			<stop  offset="0.15" style="stop-color:#0075BE"/>
			<stop  offset="0.25" style="stop-color:#1E9CD7"/>
			<stop  offset="0.2639" style="stop-color:#26A0CA"/>
			<stop  offset="0.3202" style="stop-color:#44AF9A"/>
			<stop  offset="0.3738" style="stop-color:#5BBA74"/>
			<stop  offset="0.4231" style="stop-color:#6CC259"/>
			<stop  offset="0.4667" style="stop-color:#76C749"/>
			<stop  offset="0.5" style="stop-color:#7AC943"/>
			<stop  offset="0.5333" style="stop-color:#76C749"/>
			<stop  offset="0.5769" style="stop-color:#6CC259"/>
			<stop  offset="0.6262" style="stop-color:#5BBA74"/>
			<stop  offset="0.6798" style="stop-color:#44AF9A"/>
			<stop  offset="0.7361" style="stop-color:#26A0CA"/>
			<stop  offset="0.75" style="stop-color:#1E9CD7"/>
			<stop  offset="0.85" style="stop-color:#0075BE"/>
			<stop  offset="1" style="stop-color:#005B97"/>
		</linearGradient>
		<path class="st24" d="M960,9.4l20,0.1c1.4,0,2.5,1.1,2.5,2.5c0,1.4-1.1,2.5-2.5,2.5l-20,0.1c-1.4,0-2.6-1.1-2.6-2.6
			C957.4,10.6,958.6,9.4,960,9.4L960,9.4z"/>
		<linearGradient id="SVGID_26_" gradientUnits="userSpaceOnUse" x1="-3" y1="12" x2="1369" y2="12">
			<stop  offset="0" style="stop-color:#005B97"/>
			<stop  offset="0.15" style="stop-color:#0075BE"/>
			<stop  offset="0.25" style="stop-color:#1E9CD7"/>
			<stop  offset="0.2639" style="stop-color:#26A0CA"/>
			<stop  offset="0.3202" style="stop-color:#44AF9A"/>
			<stop  offset="0.3738" style="stop-color:#5BBA74"/>
			<stop  offset="0.4231" style="stop-color:#6CC259"/>
			<stop  offset="0.4667" style="stop-color:#76C749"/>
			<stop  offset="0.5" style="stop-color:#7AC943"/>
			<stop  offset="0.5333" style="stop-color:#76C749"/>
			<stop  offset="0.5769" style="stop-color:#6CC259"/>
			<stop  offset="0.6262" style="stop-color:#5BBA74"/>
			<stop  offset="0.6798" style="stop-color:#44AF9A"/>
			<stop  offset="0.7361" style="stop-color:#26A0CA"/>
			<stop  offset="0.75" style="stop-color:#1E9CD7"/>
			<stop  offset="0.85" style="stop-color:#0075BE"/>
			<stop  offset="1" style="stop-color:#005B97"/>
		</linearGradient>
		<path class="st25" d="M1000,9.6l20,0.1c1.3,0,2.4,1.1,2.3,2.4c0,1.3-1.1,2.3-2.3,2.3l-20,0.1c-1.3,0-2.4-1.1-2.5-2.4
			S998.6,9.6,1000,9.6L1000,9.6z"/>
		<linearGradient id="SVGID_27_" gradientUnits="userSpaceOnUse" x1="-3" y1="12" x2="1369" y2="12">
			<stop  offset="0" style="stop-color:#005B97"/>
			<stop  offset="0.15" style="stop-color:#0075BE"/>
			<stop  offset="0.25" style="stop-color:#1E9CD7"/>
			<stop  offset="0.2639" style="stop-color:#26A0CA"/>
			<stop  offset="0.3202" style="stop-color:#44AF9A"/>
			<stop  offset="0.3738" style="stop-color:#5BBA74"/>
			<stop  offset="0.4231" style="stop-color:#6CC259"/>
			<stop  offset="0.4667" style="stop-color:#76C749"/>
			<stop  offset="0.5" style="stop-color:#7AC943"/>
			<stop  offset="0.5333" style="stop-color:#76C749"/>
			<stop  offset="0.5769" style="stop-color:#6CC259"/>
			<stop  offset="0.6262" style="stop-color:#5BBA74"/>
			<stop  offset="0.6798" style="stop-color:#44AF9A"/>
			<stop  offset="0.7361" style="stop-color:#26A0CA"/>
			<stop  offset="0.75" style="stop-color:#1E9CD7"/>
			<stop  offset="0.85" style="stop-color:#0075BE"/>
			<stop  offset="1" style="stop-color:#005B97"/>
		</linearGradient>
		<path class="st26" d="M1040,9.7l20,0.1c1.2,0,2.2,1,2.2,2.2c0,1.2-1,2.2-2.2,2.2l-20,0.1c-1.3,0-2.3-1-2.3-2.3
			C1037.7,10.8,1038.7,9.7,1040,9.7L1040,9.7z"/>
		<linearGradient id="SVGID_28_" gradientUnits="userSpaceOnUse" x1="-3" y1="12" x2="1369" y2="12">
			<stop  offset="0" style="stop-color:#005B97"/>
			<stop  offset="0.15" style="stop-color:#0075BE"/>
			<stop  offset="0.25" style="stop-color:#1E9CD7"/>
			<stop  offset="0.2639" style="stop-color:#26A0CA"/>
			<stop  offset="0.3202" style="stop-color:#44AF9A"/>
			<stop  offset="0.3738" style="stop-color:#5BBA74"/>
			<stop  offset="0.4231" style="stop-color:#6CC259"/>
			<stop  offset="0.4667" style="stop-color:#76C749"/>
			<stop  offset="0.5" style="stop-color:#7AC943"/>
			<stop  offset="0.5333" style="stop-color:#76C749"/>
			<stop  offset="0.5769" style="stop-color:#6CC259"/>
			<stop  offset="0.6262" style="stop-color:#5BBA74"/>
			<stop  offset="0.6798" style="stop-color:#44AF9A"/>
			<stop  offset="0.7361" style="stop-color:#26A0CA"/>
			<stop  offset="0.75" style="stop-color:#1E9CD7"/>
			<stop  offset="0.85" style="stop-color:#0075BE"/>
			<stop  offset="1" style="stop-color:#005B97"/>
		</linearGradient>
		<path class="st27" d="M1080,9.9l20,0.1c1.1,0,2,0.9,2,2c0,1.1-0.9,2-2,2l-20,0.1c-1.2,0-2.1-0.9-2.1-2.1S1078.8,9.9,1080,9.9
			L1080,9.9z"/>
		<linearGradient id="SVGID_29_" gradientUnits="userSpaceOnUse" x1="-3" y1="12" x2="1369" y2="12">
			<stop  offset="0" style="stop-color:#005B97"/>
			<stop  offset="0.15" style="stop-color:#0075BE"/>
			<stop  offset="0.25" style="stop-color:#1E9CD7"/>
			<stop  offset="0.2639" style="stop-color:#26A0CA"/>
			<stop  offset="0.3202" style="stop-color:#44AF9A"/>
			<stop  offset="0.3738" style="stop-color:#5BBA74"/>
			<stop  offset="0.4231" style="stop-color:#6CC259"/>
			<stop  offset="0.4667" style="stop-color:#76C749"/>
			<stop  offset="0.5" style="stop-color:#7AC943"/>
			<stop  offset="0.5333" style="stop-color:#76C749"/>
			<stop  offset="0.5769" style="stop-color:#6CC259"/>
			<stop  offset="0.6262" style="stop-color:#5BBA74"/>
			<stop  offset="0.6798" style="stop-color:#44AF9A"/>
			<stop  offset="0.7361" style="stop-color:#26A0CA"/>
			<stop  offset="0.75" style="stop-color:#1E9CD7"/>
			<stop  offset="0.85" style="stop-color:#0075BE"/>
			<stop  offset="1" style="stop-color:#005B97"/>
		</linearGradient>
		<path class="st28" d="M1120,10.1l20,0.1c1,0,1.8,0.8,1.8,1.8c0,1-0.8,1.8-1.8,1.8l-20,0.1c-1.1,0-1.9-0.8-1.9-1.9
			C1118.1,11,1118.9,10.1,1120,10.1C1120,10.1,1120,10.1,1120,10.1z"/>
		<linearGradient id="SVGID_30_" gradientUnits="userSpaceOnUse" x1="-3" y1="12" x2="1369" y2="12">
			<stop  offset="0" style="stop-color:#005B97"/>
			<stop  offset="0.15" style="stop-color:#0075BE"/>
			<stop  offset="0.25" style="stop-color:#1E9CD7"/>
			<stop  offset="0.2639" style="stop-color:#26A0CA"/>
			<stop  offset="0.3202" style="stop-color:#44AF9A"/>
			<stop  offset="0.3738" style="stop-color:#5BBA74"/>
			<stop  offset="0.4231" style="stop-color:#6CC259"/>
			<stop  offset="0.4667" style="stop-color:#76C749"/>
			<stop  offset="0.5" style="stop-color:#7AC943"/>
			<stop  offset="0.5333" style="stop-color:#76C749"/>
			<stop  offset="0.5769" style="stop-color:#6CC259"/>
			<stop  offset="0.6262" style="stop-color:#5BBA74"/>
			<stop  offset="0.6798" style="stop-color:#44AF9A"/>
			<stop  offset="0.7361" style="stop-color:#26A0CA"/>
			<stop  offset="0.75" style="stop-color:#1E9CD7"/>
			<stop  offset="0.85" style="stop-color:#0075BE"/>
			<stop  offset="1" style="stop-color:#005B97"/>
		</linearGradient>
		<path class="st29" d="M1160,10.3l20,0.1c0.9,0,1.6,0.7,1.6,1.6c0,0.9-0.7,1.6-1.6,1.6l-20,0.1c-0.9,0-1.7-0.7-1.7-1.7
			C1158.3,11.1,1159.1,10.3,1160,10.3C1160,10.3,1160,10.3,1160,10.3z"/>
		<linearGradient id="SVGID_31_" gradientUnits="userSpaceOnUse" x1="-3" y1="12" x2="1369" y2="12">
			<stop  offset="0" style="stop-color:#005B97"/>
			<stop  offset="0.15" style="stop-color:#0075BE"/>
			<stop  offset="0.25" style="stop-color:#1E9CD7"/>
			<stop  offset="0.2639" style="stop-color:#26A0CA"/>
			<stop  offset="0.3202" style="stop-color:#44AF9A"/>
			<stop  offset="0.3738" style="stop-color:#5BBA74"/>
			<stop  offset="0.4231" style="stop-color:#6CC259"/>
			<stop  offset="0.4667" style="stop-color:#76C749"/>
			<stop  offset="0.5" style="stop-color:#7AC943"/>
			<stop  offset="0.5333" style="stop-color:#76C749"/>
			<stop  offset="0.5769" style="stop-color:#6CC259"/>
			<stop  offset="0.6262" style="stop-color:#5BBA74"/>
			<stop  offset="0.6798" style="stop-color:#44AF9A"/>
			<stop  offset="0.7361" style="stop-color:#26A0CA"/>
			<stop  offset="0.75" style="stop-color:#1E9CD7"/>
			<stop  offset="0.85" style="stop-color:#0075BE"/>
			<stop  offset="1" style="stop-color:#005B97"/>
		</linearGradient>
		<path class="st30" d="M1200,10.6l20,0.2c0.7,0,1.3,0.6,1.3,1.3c0,0.7-0.6,1.3-1.3,1.3l-20,0.2c-0.8,0-1.4-0.6-1.4-1.4
			C1198.5,11.2,1199.2,10.6,1200,10.6C1200,10.6,1200,10.6,1200,10.6z"/>
		<linearGradient id="SVGID_32_" gradientUnits="userSpaceOnUse" x1="-3" y1="12" x2="1369" y2="12">
			<stop  offset="0" style="stop-color:#005B97"/>
			<stop  offset="0.15" style="stop-color:#0075BE"/>
			<stop  offset="0.25" style="stop-color:#1E9CD7"/>
			<stop  offset="0.2639" style="stop-color:#26A0CA"/>
			<stop  offset="0.3202" style="stop-color:#44AF9A"/>
			<stop  offset="0.3738" style="stop-color:#5BBA74"/>
			<stop  offset="0.4231" style="stop-color:#6CC259"/>
			<stop  offset="0.4667" style="stop-color:#76C749"/>
			<stop  offset="0.5" style="stop-color:#7AC943"/>
			<stop  offset="0.5333" style="stop-color:#76C749"/>
			<stop  offset="0.5769" style="stop-color:#6CC259"/>
			<stop  offset="0.6262" style="stop-color:#5BBA74"/>
			<stop  offset="0.6798" style="stop-color:#44AF9A"/>
			<stop  offset="0.7361" style="stop-color:#26A0CA"/>
			<stop  offset="0.75" style="stop-color:#1E9CD7"/>
			<stop  offset="0.85" style="stop-color:#0075BE"/>
			<stop  offset="1" style="stop-color:#005B97"/>
		</linearGradient>
		<path class="st31" d="M1240,10.9l20,0.2c0.5,0,1,0.4,1,1c0,0.5-0.4,0.9-1,1l-20,0.2c-0.6,0-1.1-0.5-1.1-1.1
			C1238.9,11.4,1239.4,10.9,1240,10.9C1240,10.9,1240,10.9,1240,10.9z"/>
		<linearGradient id="SVGID_33_" gradientUnits="userSpaceOnUse" x1="-3" y1="12" x2="1369" y2="12">
			<stop  offset="0" style="stop-color:#005B97"/>
			<stop  offset="0.15" style="stop-color:#0075BE"/>
			<stop  offset="0.25" style="stop-color:#1E9CD7"/>
			<stop  offset="0.2639" style="stop-color:#26A0CA"/>
			<stop  offset="0.3202" style="stop-color:#44AF9A"/>
			<stop  offset="0.3738" style="stop-color:#5BBA74"/>
			<stop  offset="0.4231" style="stop-color:#6CC259"/>
			<stop  offset="0.4667" style="stop-color:#76C749"/>
			<stop  offset="0.5" style="stop-color:#7AC943"/>
			<stop  offset="0.5333" style="stop-color:#76C749"/>
			<stop  offset="0.5769" style="stop-color:#6CC259"/>
			<stop  offset="0.6262" style="stop-color:#5BBA74"/>
			<stop  offset="0.6798" style="stop-color:#44AF9A"/>
			<stop  offset="0.7361" style="stop-color:#26A0CA"/>
			<stop  offset="0.75" style="stop-color:#1E9CD7"/>
			<stop  offset="0.85" style="stop-color:#0075BE"/>
			<stop  offset="1" style="stop-color:#005B97"/>
		</linearGradient>
		<path class="st32" d="M1280,11.2l20,0.2c0.4,0,0.6,0.3,0.6,0.6c0,0.4-0.3,0.6-0.6,0.6l-20,0.2c-0.4,0-0.8-0.4-0.8-0.8
			C1279.2,11.6,1279.5,11.2,1280,11.2C1280,11.2,1280,11.2,1280,11.2z"/>
		<linearGradient id="SVGID_34_" gradientUnits="userSpaceOnUse" x1="-3" y1="12" x2="1369" y2="12">
			<stop  offset="0" style="stop-color:#005B97"/>
			<stop  offset="0.15" style="stop-color:#0075BE"/>
			<stop  offset="0.25" style="stop-color:#1E9CD7"/>
			<stop  offset="0.2639" style="stop-color:#26A0CA"/>
			<stop  offset="0.3202" style="stop-color:#44AF9A"/>
			<stop  offset="0.3738" style="stop-color:#5BBA74"/>
			<stop  offset="0.4231" style="stop-color:#6CC259"/>
			<stop  offset="0.4667" style="stop-color:#76C749"/>
			<stop  offset="0.5" style="stop-color:#7AC943"/>
			<stop  offset="0.5333" style="stop-color:#76C749"/>
			<stop  offset="0.5769" style="stop-color:#6CC259"/>
			<stop  offset="0.6262" style="stop-color:#5BBA74"/>
			<stop  offset="0.6798" style="stop-color:#44AF9A"/>
			<stop  offset="0.7361" style="stop-color:#26A0CA"/>
			<stop  offset="0.75" style="stop-color:#1E9CD7"/>
			<stop  offset="0.85" style="stop-color:#0075BE"/>
			<stop  offset="1" style="stop-color:#005B97"/>
		</linearGradient>
		<path class="st33" d="M1320,11.5l20,0.2c0.2,0,0.3,0.1,0.3,0.3c0,0.2-0.1,0.3-0.3,0.3l-20,0.2c-0.3,0-0.5-0.2-0.5-0.5
			C1319.5,11.7,1319.7,11.5,1320,11.5C1320,11.5,1320,11.5,1320,11.5z"/>
		<linearGradient id="SVGID_35_" gradientUnits="userSpaceOnUse" x1="-3" y1="12" x2="1369" y2="12">
			<stop  offset="0" style="stop-color:#005B97"/>
			<stop  offset="0.15" style="stop-color:#0075BE"/>
			<stop  offset="0.25" style="stop-color:#1E9CD7"/>
			<stop  offset="0.2639" style="stop-color:#26A0CA"/>
			<stop  offset="0.3202" style="stop-color:#44AF9A"/>
			<stop  offset="0.3738" style="stop-color:#5BBA74"/>
			<stop  offset="0.4231" style="stop-color:#6CC259"/>
			<stop  offset="0.4667" style="stop-color:#76C749"/>
			<stop  offset="0.5" style="stop-color:#7AC943"/>
			<stop  offset="0.5333" style="stop-color:#76C749"/>
			<stop  offset="0.5769" style="stop-color:#6CC259"/>
			<stop  offset="0.6262" style="stop-color:#5BBA74"/>
			<stop  offset="0.6798" style="stop-color:#44AF9A"/>
			<stop  offset="0.7361" style="stop-color:#26A0CA"/>
			<stop  offset="0.75" style="stop-color:#1E9CD7"/>
			<stop  offset="0.85" style="stop-color:#0075BE"/>
			<stop  offset="1" style="stop-color:#005B97"/>
		</linearGradient>
		<path class="st34" d="M1360,11.9l6,0.1l-6,0.1C1360,12.1,1359.9,12,1360,11.9C1359.9,12,1360,11.9,1360,11.9
			C1360,11.9,1360,11.9,1360,11.9z"/>
	</g>
</g>
</svg>
